<?xml version="1.0" encoding="UTF-8"?>
<svg id="circle_tri01" data-name="circle tri01" xmlns="http://www.w3.org/2000/svg" viewBox="0 0 800 800">
  <defs>
    <style>
      .cls-1 {
        fill: #b2b2b2;
        stroke-width: 0px;
      }
    </style>
  </defs>
  <path class="cls-1" d="M623.6,600c-3.7,4.1-7.5,8.2-11.5,12.1-56.2,56.3-132.5,87.9-212.1,87.9s-155.9-31.6-212.1-87.9-87.9-132.5-87.9-212.1,31.6-155.9,87.9-212.1c44.3-44.3,101.1-73.4,162.1-83.7v102.2c-34.3,8.8-65.9,26.7-91.4,52.2-37.5,37.5-58.6,88.4-58.6,141.4s21.1,103.9,58.6,141.4c37.5,37.5,88.4,58.6,141.4,58.6h223.6Z"/>
  <path class="cls-1" d="M700,400c0,53.1-14.1,104.8-40.2,150h-259.8c-39.8,0-77.9-15.8-106.1-43.9s-43.9-66.3-43.9-106.1,15.8-77.9,43.9-106.1c16-16,35.2-28,56.1-35.4v141.5c0,13.3,5.3,26,14.6,35.4,9.4,9.4,22.1,14.6,35.4,14.6h193.7c4.2-16.2,6.3-33,6.3-50h-200v-100h173.2c-8.7-15-19.3-29-31.8-41.4-3-3-6-5.8-9.1-8.6h-132.3V100c16.9,0,33.6,1.4,50,4.2,61,10.3,117.8,39.3,162.1,83.7,56.3,56.2,87.9,132.5,87.9,212.1Z"/>
</svg>