<?xml version="1.0" encoding="utf-8"?>
<!-- Generator: Adobe Illustrator 28.3.0, SVG Export Plug-In . SVG Version: 6.00 Build 0)  -->
<svg version="1.1" id="circle_tri01" xmlns="http://www.w3.org/2000/svg" xmlns:xlink="http://www.w3.org/1999/xlink" x="0px"
	 y="0px" viewBox="0 0 800 800" style="enable-background:new 0 0 800 800;" xml:space="preserve">
<style type="text/css">
	.st0{fill:#0C0C0C;}
</style>
<path class="st0" d="M623.6,600c-3.7,4.1-7.5,8.2-11.5,12.1C555.9,668.4,479.6,700,400,700s-155.9-31.6-212.1-87.9
	S100,479.6,100,400s31.6-155.9,87.9-212.1c44.3-44.3,101.1-73.4,162.1-83.7v102.2c-34.3,8.8-65.9,26.7-91.4,52.2
	C221.1,296.1,200,347,200,400s21.1,103.9,58.6,141.4S347,600,400,600H623.6z"/>
<path class="st0" d="M700,400c0,53.1-14.1,104.8-40.2,150H400c-39.8,0-77.9-15.8-106.1-43.9S250,439.8,250,400s15.8-77.9,43.9-106.1
	c16-16,35.2-28,56.1-35.4V400c0,13.3,5.3,26,14.6,35.4c9.4,9.4,22.1,14.6,35.4,14.6h193.7c4.2-16.2,6.3-33,6.3-50H400V300h173.2
	c-8.7-15-19.3-29-31.8-41.4c-3-3-6-5.8-9.1-8.6H400V100c16.9,0,33.6,1.4,50,4.2c61,10.3,117.8,39.3,162.1,83.7
	C668.4,244.1,700,320.4,700,400z"/>
</svg>
